<svg width="213" height="83" viewBox="0 0 213 83" fill="none" xmlns="http://www.w3.org/2000/svg">
<g opacity="0.5">
<path d="M25.3331 14.6666H9.51982L14.3598 8.85331C14.5861 8.58103 14.695 8.22998 14.6625 7.87742C14.63 7.52485 14.4588 7.19963 14.1865 6.97331C13.9142 6.747 13.5632 6.63811 13.2106 6.67062C12.858 6.70313 12.5328 6.87436 12.3065 7.14665L5.63982 15.1466C5.59497 15.2103 5.55486 15.2771 5.51982 15.3466C5.51982 15.4133 5.51982 15.4533 5.42649 15.52C5.36605 15.6729 5.33441 15.8356 5.33315 16C5.33441 16.1644 5.36605 16.3271 5.42649 16.48C5.42649 16.5466 5.42649 16.5866 5.51982 16.6533C5.55486 16.7228 5.59497 16.7897 5.63982 16.8533L12.3065 24.8533C12.4318 25.0038 12.5888 25.1249 12.7663 25.2078C12.9437 25.2908 13.1373 25.3336 13.3332 25.3333C13.6447 25.3339 13.9466 25.2254 14.1865 25.0266C14.3215 24.9147 14.4331 24.7772 14.5149 24.6221C14.5967 24.467 14.6471 24.2972 14.6632 24.1226C14.6793 23.948 14.6608 23.7719 14.6087 23.6044C14.5567 23.4369 14.4721 23.2814 14.3598 23.1466L9.51982 17.3333H25.3331C25.6868 17.3333 26.0259 17.1928 26.276 16.9428C26.526 16.6927 26.6665 16.3536 26.6665 16C26.6665 15.6464 26.526 15.3072 26.276 15.0572C26.0259 14.8071 25.6868 14.6666 25.3331 14.6666Z" fill="#333333"/>
<path d="M49.0719 7.7C51.2479 7.7 52.9599 8.22 54.2079 9.26C55.4559 10.3 56.0799 11.732 56.0799 13.556C56.0799 15.38 55.4559 16.812 54.2079 17.852C52.9599 18.892 51.2479 19.412 49.0719 19.412H44.9199V24.5H42.5199V7.7H49.0719ZM48.9999 17.324C50.5199 17.324 51.6799 17.004 52.4799 16.364C53.2799 15.708 53.6799 14.772 53.6799 13.556C53.6799 12.34 53.2799 11.412 52.4799 10.772C51.6799 10.116 50.5199 9.788 48.9999 9.788H44.9199V17.324H48.9999ZM61.2669 13.916C61.6669 13.18 62.2589 12.62 63.0429 12.236C63.8269 11.852 64.7789 11.66 65.8989 11.66V13.892C65.7709 13.876 65.5949 13.868 65.3709 13.868C64.1229 13.868 63.1389 14.244 62.4189 14.996C61.7149 15.732 61.3629 16.788 61.3629 18.164V24.5H59.0589V11.78H61.2669V13.916ZM80.1174 18.212C80.1174 18.388 80.1014 18.62 80.0694 18.908H69.7494C69.8934 20.028 70.3814 20.932 71.2134 21.62C72.0614 22.292 73.1094 22.628 74.3574 22.628C75.8774 22.628 77.1014 22.116 78.0294 21.092L79.3014 22.58C78.7254 23.252 78.0054 23.764 77.1414 24.116C76.2934 24.468 75.3414 24.644 74.2854 24.644C72.9414 24.644 71.7494 24.372 70.7094 23.828C69.6694 23.268 68.8614 22.492 68.2854 21.5C67.7254 20.508 67.4454 19.388 67.4454 18.14C67.4454 16.908 67.7174 15.796 68.2614 14.804C68.8214 13.812 69.5814 13.044 70.5414 12.5C71.5174 11.94 72.6134 11.66 73.8294 11.66C75.0454 11.66 76.1254 11.94 77.0694 12.5C78.0294 13.044 78.7734 13.812 79.3014 14.804C79.8454 15.796 80.1174 16.932 80.1174 18.212ZM73.8294 13.604C72.7254 13.604 71.7974 13.94 71.0454 14.612C70.3094 15.284 69.8774 16.164 69.7494 17.252H77.9094C77.7814 16.18 77.3414 15.308 76.5894 14.636C75.8534 13.948 74.9334 13.604 73.8294 13.604ZM94.3383 11.78L88.7703 24.5H86.4183L80.8503 11.78H83.2503L87.6183 21.98L92.0823 11.78H94.3383ZM96.4886 11.78H98.7926V24.5H96.4886V11.78ZM97.6406 9.332C97.1926 9.332 96.8166 9.188 96.5126 8.9C96.2246 8.612 96.0806 8.26 96.0806 7.844C96.0806 7.428 96.2246 7.076 96.5126 6.788C96.8166 6.484 97.1926 6.332 97.6406 6.332C98.0886 6.332 98.4566 6.476 98.7446 6.764C99.0486 7.036 99.2006 7.38 99.2006 7.796C99.2006 8.228 99.0486 8.596 98.7446 8.9C98.4566 9.188 98.0886 9.332 97.6406 9.332ZM108.64 24.644C107.376 24.644 106.24 24.364 105.232 23.804C104.224 23.244 103.432 22.476 102.856 21.5C102.296 20.508 102.016 19.388 102.016 18.14C102.016 16.892 102.296 15.78 102.856 14.804C103.432 13.812 104.224 13.044 105.232 12.5C106.24 11.94 107.376 11.66 108.64 11.66C109.904 11.66 111.032 11.94 112.024 12.5C113.032 13.044 113.816 13.812 114.376 14.804C114.952 15.78 115.24 16.892 115.24 18.14C115.24 19.388 114.952 20.508 114.376 21.5C113.816 22.476 113.032 23.244 112.024 23.804C111.032 24.364 109.904 24.644 108.64 24.644ZM108.64 22.628C109.456 22.628 110.184 22.444 110.824 22.076C111.48 21.692 111.992 21.164 112.36 20.492C112.728 19.804 112.912 19.02 112.912 18.14C112.912 17.26 112.728 16.484 112.36 15.812C111.992 15.124 111.48 14.596 110.824 14.228C110.184 13.86 109.456 13.676 108.64 13.676C107.824 13.676 107.088 13.86 106.432 14.228C105.792 14.596 105.28 15.124 104.896 15.812C104.528 16.484 104.344 17.26 104.344 18.14C104.344 19.02 104.528 19.804 104.896 20.492C105.28 21.164 105.792 21.692 106.432 22.076C107.088 22.444 107.824 22.628 108.64 22.628ZM130.282 11.78V24.5H128.098V22.58C127.634 23.236 127.018 23.748 126.25 24.116C125.498 24.468 124.674 24.644 123.778 24.644C122.082 24.644 120.746 24.18 119.77 23.252C118.794 22.308 118.306 20.924 118.306 19.1V11.78H120.61V18.836C120.61 20.068 120.906 21.004 121.498 21.644C122.09 22.268 122.938 22.58 124.042 22.58C125.258 22.58 126.218 22.212 126.922 21.476C127.626 20.74 127.978 19.7 127.978 18.356V11.78H130.282ZM138.316 24.644C137.276 24.644 136.276 24.508 135.316 24.236C134.356 23.948 133.604 23.588 133.06 23.156L134.02 21.332C134.58 21.732 135.26 22.052 136.06 22.292C136.86 22.532 137.668 22.652 138.484 22.652C140.5 22.652 141.508 22.076 141.508 20.924C141.508 20.54 141.372 20.236 141.1 20.012C140.828 19.788 140.484 19.628 140.068 19.532C139.668 19.42 139.092 19.3 138.34 19.172C137.316 19.012 136.476 18.828 135.82 18.62C135.18 18.412 134.628 18.06 134.164 17.564C133.7 17.068 133.468 16.372 133.468 15.476C133.468 14.324 133.948 13.404 134.908 12.716C135.868 12.012 137.156 11.66 138.772 11.66C139.62 11.66 140.468 11.764 141.316 11.972C142.164 12.18 142.86 12.46 143.404 12.812L142.42 14.636C141.38 13.964 140.156 13.628 138.748 13.628C137.772 13.628 137.028 13.788 136.516 14.108C136.004 14.428 135.748 14.852 135.748 15.38C135.748 15.796 135.892 16.124 136.18 16.364C136.468 16.604 136.82 16.78 137.236 16.892C137.668 17.004 138.268 17.132 139.036 17.276C140.06 17.452 140.884 17.644 141.508 17.852C142.148 18.044 142.692 18.38 143.14 18.86C143.588 19.34 143.812 20.012 143.812 20.876C143.812 22.028 143.316 22.948 142.324 23.636C141.348 24.308 140.012 24.644 138.316 24.644Z" fill="#333333"/>
</g>
<path d="M15.6559 65.048L11.5599 69.208V75H8.35988V52.6H11.5599V65.112L23.7199 52.6H27.3679L17.7999 62.68L27.9759 75H24.2319L15.6559 65.048ZM36.6816 57.88C39.0283 57.88 40.8203 58.456 42.0576 59.608C43.3163 60.76 43.9456 62.4773 43.9456 64.76V75H41.0336V72.76C40.5216 73.5493 39.7856 74.1573 38.8256 74.584C37.887 74.9893 36.767 75.192 35.4656 75.192C33.567 75.192 32.0416 74.7333 30.8896 73.816C29.759 72.8987 29.1936 71.6933 29.1936 70.2C29.1936 68.7067 29.7376 67.512 30.8256 66.616C31.9136 65.6987 33.6416 65.24 36.0096 65.24H40.8736V64.632C40.8736 63.3093 40.4896 62.296 39.7216 61.592C38.9536 60.888 37.823 60.536 36.3296 60.536C35.327 60.536 34.3456 60.7067 33.3856 61.048C32.4256 61.368 31.615 61.8053 30.9536 62.36L29.6736 60.056C30.5483 59.352 31.5936 58.8187 32.8096 58.456C34.0256 58.072 35.3163 57.88 36.6816 57.88ZM35.9776 72.824C37.151 72.824 38.1643 72.568 39.0176 72.056C39.871 71.5227 40.4896 70.776 40.8736 69.816V67.448H36.1376C33.535 67.448 32.2336 68.3227 32.2336 70.072C32.2336 70.9253 32.5643 71.5973 33.2256 72.088C33.887 72.5787 34.8043 72.824 35.9776 72.824ZM56.2226 67.096L52.7026 70.36V75H49.6306V51.256H52.7026V66.488L61.9506 58.04H65.6626L58.5266 65.048L66.3666 75H62.5906L56.2226 67.096ZM78.8854 74.008C78.4374 74.392 77.8827 74.6907 77.2214 74.904C76.56 75.096 75.8774 75.192 75.1734 75.192C73.4667 75.192 72.144 74.7333 71.2054 73.816C70.2667 72.8987 69.7974 71.5867 69.7974 69.88V60.568H66.9174V58.04H69.7974V54.328H72.8694V58.04H77.7334V60.568H72.8694V69.752C72.8694 70.6693 73.0934 71.3733 73.5414 71.864C74.0107 72.3547 74.672 72.6 75.5254 72.6C76.464 72.6 77.264 72.3333 77.9254 71.8L78.8854 74.008ZM98.4074 58.04V75H95.4954V72.44C94.8767 73.3147 94.0554 73.9973 93.0314 74.488C92.0287 74.9573 90.93 75.192 89.7354 75.192C87.474 75.192 85.6927 74.5733 84.3914 73.336C83.09 72.0773 82.4394 70.232 82.4394 67.8V58.04H85.5114V67.448C85.5114 69.0907 85.906 70.3387 86.6954 71.192C87.4847 72.024 88.6154 72.44 90.0874 72.44C91.7087 72.44 92.9887 71.9493 93.9274 70.968C94.866 69.9867 95.3354 68.6 95.3354 66.808V58.04H98.4074ZM109.12 75.192C107.733 75.192 106.4 75.0107 105.12 74.648C103.84 74.264 102.837 73.784 102.112 73.208L103.392 70.776C104.138 71.3093 105.045 71.736 106.112 72.056C107.178 72.376 108.256 72.536 109.344 72.536C112.032 72.536 113.376 71.768 113.376 70.232C113.376 69.72 113.194 69.3147 112.832 69.016C112.469 68.7173 112.01 68.504 111.456 68.376C110.922 68.2267 110.154 68.0667 109.152 67.896C107.786 67.6827 106.666 67.4373 105.792 67.16C104.938 66.8827 104.202 66.4133 103.584 65.752C102.965 65.0907 102.656 64.1627 102.656 62.968C102.656 61.432 103.296 60.2053 104.576 59.288C105.856 58.3493 107.573 57.88 109.728 57.88C110.858 57.88 111.989 58.0187 113.12 58.296C114.25 58.5733 115.178 58.9467 115.904 59.416L114.592 61.848C113.205 60.952 111.573 60.504 109.696 60.504C108.394 60.504 107.402 60.7173 106.72 61.144C106.037 61.5707 105.696 62.136 105.696 62.84C105.696 63.3947 105.888 63.832 106.272 64.152C106.656 64.472 107.125 64.7067 107.68 64.856C108.256 65.0053 109.056 65.176 110.08 65.368C111.445 65.6027 112.544 65.8587 113.376 66.136C114.229 66.392 114.954 66.84 115.552 67.48C116.149 68.12 116.448 69.016 116.448 70.168C116.448 71.704 115.786 72.9307 114.464 73.848C113.162 74.744 111.381 75.192 109.12 75.192ZM138.065 52.6C140.966 52.6 143.249 53.2933 144.913 54.68C146.577 56.0667 147.409 57.976 147.409 60.408C147.409 62.84 146.577 64.7493 144.913 66.136C143.249 67.5227 140.966 68.216 138.065 68.216H132.529V75H129.329V52.6H138.065ZM137.969 65.432C139.995 65.432 141.542 65.0053 142.609 64.152C143.675 63.2773 144.209 62.0293 144.209 60.408C144.209 58.7867 143.675 57.5493 142.609 56.696C141.542 55.8213 139.995 55.384 137.969 55.384H132.529V65.432H137.969ZM151.974 51.256H155.046V75H151.974V51.256ZM167.088 57.88C169.435 57.88 171.227 58.456 172.464 59.608C173.723 60.76 174.352 62.4773 174.352 64.76V75H171.44V72.76C170.928 73.5493 170.192 74.1573 169.232 74.584C168.293 74.9893 167.173 75.192 165.872 75.192C163.973 75.192 162.448 74.7333 161.296 73.816C160.165 72.8987 159.6 71.6933 159.6 70.2C159.6 68.7067 160.144 67.512 161.232 66.616C162.32 65.6987 164.048 65.24 166.416 65.24H171.28V64.632C171.28 63.3093 170.896 62.296 170.128 61.592C169.36 60.888 168.229 60.536 166.736 60.536C165.733 60.536 164.752 60.7067 163.792 61.048C162.832 61.368 162.021 61.8053 161.36 62.36L160.08 60.056C160.955 59.352 162 58.8187 163.216 58.456C164.432 58.072 165.723 57.88 167.088 57.88ZM166.384 72.824C167.557 72.824 168.571 72.568 169.424 72.056C170.277 71.5227 170.896 70.776 171.28 69.816V67.448H166.544C163.941 67.448 162.64 68.3227 162.64 70.072C162.64 70.9253 162.971 71.5973 163.632 72.088C164.293 72.5787 165.211 72.824 166.384 72.824ZM189.093 57.88C191.248 57.88 192.954 58.5093 194.213 59.768C195.493 61.0053 196.133 62.8293 196.133 65.24V75H193.061V65.592C193.061 63.9493 192.666 62.712 191.877 61.88C191.088 61.048 189.957 60.632 188.485 60.632C186.821 60.632 185.509 61.1227 184.549 62.104C183.589 63.064 183.109 64.4507 183.109 66.264V75H180.037V58.04H182.981V60.6C183.6 59.7253 184.432 59.0533 185.477 58.584C186.544 58.1147 187.749 57.88 189.093 57.88ZM211.354 74.008C210.906 74.392 210.351 74.6907 209.69 74.904C209.029 75.096 208.346 75.192 207.642 75.192C205.935 75.192 204.613 74.7333 203.674 73.816C202.735 72.8987 202.266 71.5867 202.266 69.88V60.568H199.386V58.04H202.266V54.328H205.338V58.04H210.202V60.568H205.338V69.752C205.338 70.6693 205.562 71.3733 206.01 71.864C206.479 72.3547 207.141 72.6 207.994 72.6C208.933 72.6 209.733 72.3333 210.394 71.8L211.354 74.008Z" fill="#156963"/>
</svg>
