<svg width="222" height="83" viewBox="0 0 222 83" fill="none" xmlns="http://www.w3.org/2000/svg">
<g opacity="0.5">
<path d="M16.9679 7.7V24.5H14.9999L4.91988 11.972V24.5H2.51988V7.7H4.48788L14.5679 20.228V7.7H16.9679ZM33.1564 18.212C33.1564 18.388 33.1404 18.62 33.1084 18.908H22.7884C22.9324 20.028 23.4204 20.932 24.2524 21.62C25.1004 22.292 26.1484 22.628 27.3964 22.628C28.9164 22.628 30.1404 22.116 31.0684 21.092L32.3404 22.58C31.7644 23.252 31.0444 23.764 30.1804 24.116C29.3324 24.468 28.3804 24.644 27.3244 24.644C25.9804 24.644 24.7884 24.372 23.7484 23.828C22.7084 23.268 21.9004 22.492 21.3244 21.5C20.7644 20.508 20.4844 19.388 20.4844 18.14C20.4844 16.908 20.7564 15.796 21.3004 14.804C21.8604 13.812 22.6204 13.044 23.5804 12.5C24.5564 11.94 25.6524 11.66 26.8684 11.66C28.0844 11.66 29.1644 11.94 30.1084 12.5C31.0684 13.044 31.8124 13.812 32.3404 14.804C32.8844 15.796 33.1564 16.932 33.1564 18.212ZM26.8684 13.604C25.7644 13.604 24.8364 13.94 24.0844 14.612C23.3484 15.284 22.9164 16.164 22.7884 17.252H30.9484C30.8204 16.18 30.3804 15.308 29.6284 14.636C28.8924 13.948 27.9724 13.604 26.8684 13.604ZM44.1162 24.5L40.4442 19.628L36.7242 24.5H34.1562L39.1722 17.996L34.3962 11.78H36.9642L40.4682 16.364L43.9482 11.78H46.4682L41.6682 17.996L46.7322 24.5H44.1162ZM56.3984 23.756C56.0624 24.044 55.6464 24.268 55.1504 24.428C54.6544 24.572 54.1424 24.644 53.6144 24.644C52.3344 24.644 51.3424 24.3 50.6384 23.612C49.9344 22.924 49.5824 21.94 49.5824 20.66V13.676H47.4224V11.78H49.5824V8.996H51.8864V11.78H55.5344V13.676H51.8864V20.564C51.8864 21.252 52.0544 21.78 52.3904 22.148C52.7424 22.516 53.2384 22.7 53.8784 22.7C54.5824 22.7 55.1824 22.5 55.6784 22.1L56.3984 23.756Z" fill="#F2F2F2"/>
<path d="M71.6666 17.3334H87.4799L82.6399 23.1467C82.4136 23.419 82.3047 23.77 82.3372 24.1226C82.3697 24.4752 82.541 24.8004 82.8133 25.0267C83.0856 25.253 83.4366 25.3619 83.7892 25.3294C84.1417 25.2969 84.4669 25.1256 84.6933 24.8534L91.3599 16.8534C91.4048 16.7897 91.4449 16.7229 91.4799 16.6534C91.4799 16.5867 91.4799 16.5467 91.5733 16.48C91.6337 16.3271 91.6653 16.1644 91.6666 16C91.6653 15.8356 91.6337 15.6729 91.5733 15.52C91.5733 15.4534 91.5733 15.4134 91.4799 15.3467C91.4449 15.2772 91.4048 15.2103 91.3599 15.1467L84.6933 7.14669C84.5679 6.99618 84.4109 6.87514 84.2335 6.79218C84.056 6.70921 83.8625 6.66637 83.6666 6.66669C83.3551 6.66608 83.0531 6.77458 82.8133 6.97335C82.6783 7.08529 82.5666 7.22275 82.4848 7.37788C82.403 7.53301 82.3526 7.70275 82.3365 7.87739C82.3204 8.05203 82.339 8.22812 82.391 8.39559C82.4431 8.56306 82.5277 8.71862 82.6399 8.85335L87.4799 14.6667H71.6666C71.313 14.6667 70.9738 14.8072 70.7238 15.0572C70.4737 15.3073 70.3333 15.6464 70.3333 16C70.3333 16.3536 70.4737 16.6928 70.7238 16.9428C70.9738 17.1929 71.313 17.3334 71.6666 17.3334Z" fill="#F2F2F2"/>
</g>
<path d="M18.3359 75L13.5039 68.12C12.9065 68.1627 12.4372 68.184 12.0959 68.184H6.55988V75H3.35988V52.6H12.0959C14.9972 52.6 17.2799 53.2933 18.9439 54.68C20.6079 56.0667 21.4399 57.976 21.4399 60.408C21.4399 62.136 21.0132 63.608 20.1599 64.824C19.3065 66.04 18.0905 66.9253 16.5119 67.48L21.8239 75H18.3359ZM11.9999 65.464C14.0265 65.464 15.5732 65.0267 16.6399 64.152C17.7065 63.2773 18.2399 62.0293 18.2399 60.408C18.2399 58.7867 17.7065 57.5493 16.6399 56.696C15.5732 55.8213 14.0265 55.384 11.9999 55.384H6.55988V65.464H11.9999ZM32.1816 57.88C34.5283 57.88 36.3203 58.456 37.5576 59.608C38.8163 60.76 39.4456 62.4773 39.4456 64.76V75H36.5336V72.76C36.0216 73.5493 35.2856 74.1573 34.3256 74.584C33.387 74.9893 32.267 75.192 30.9656 75.192C29.067 75.192 27.5416 74.7333 26.3896 73.816C25.259 72.8987 24.6936 71.6933 24.6936 70.2C24.6936 68.7067 25.2376 67.512 26.3256 66.616C27.4136 65.6987 29.1416 65.24 31.5096 65.24H36.3736V64.632C36.3736 63.3093 35.9896 62.296 35.2216 61.592C34.4536 60.888 33.323 60.536 31.8296 60.536C30.827 60.536 29.8456 60.7067 28.8856 61.048C27.9256 61.368 27.115 61.8053 26.4536 62.36L25.1736 60.056C26.0483 59.352 27.0936 58.8187 28.3096 58.456C29.5256 58.072 30.8163 57.88 32.1816 57.88ZM31.4776 72.824C32.651 72.824 33.6643 72.568 34.5176 72.056C35.371 71.5227 35.9896 70.776 36.3736 69.816V67.448H31.6376C29.035 67.448 27.7336 68.3227 27.7336 70.072C27.7336 70.9253 28.0643 71.5973 28.7256 72.088C29.387 72.5787 30.3043 72.824 31.4776 72.824ZM54.1866 57.88C56.3413 57.88 58.048 58.5093 59.3066 59.768C60.5866 61.0053 61.2266 62.8293 61.2266 65.24V75H58.1546V65.592C58.1546 63.9493 57.76 62.712 56.9706 61.88C56.1813 61.048 55.0506 60.632 53.5786 60.632C51.9146 60.632 50.6026 61.1227 49.6426 62.104C48.6826 63.064 48.2026 64.4507 48.2026 66.264V75H45.1306V51.256H48.2026V60.44C48.8426 59.6293 49.6746 59 50.6986 58.552C51.744 58.104 52.9066 57.88 54.1866 57.88ZM73.0879 57.88C75.4345 57.88 77.2265 58.456 78.4639 59.608C79.7225 60.76 80.3519 62.4773 80.3519 64.76V75H77.4399V72.76C76.9279 73.5493 76.1919 74.1573 75.2319 74.584C74.2932 74.9893 73.1732 75.192 71.8719 75.192C69.9732 75.192 68.4479 74.7333 67.2959 73.816C66.1652 72.8987 65.5999 71.6933 65.5999 70.2C65.5999 68.7067 66.1439 67.512 67.2319 66.616C68.3199 65.6987 70.0479 65.24 72.4159 65.24H77.2799V64.632C77.2799 63.3093 76.8959 62.296 76.1279 61.592C75.3599 60.888 74.2292 60.536 72.7359 60.536C71.7332 60.536 70.7519 60.7067 69.7919 61.048C68.8319 61.368 68.0212 61.8053 67.3599 62.36L66.0799 60.056C66.9545 59.352 67.9999 58.8187 69.2159 58.456C70.4319 58.072 71.7225 57.88 73.0879 57.88ZM72.3839 72.824C73.5572 72.824 74.5705 72.568 75.4239 72.056C76.2772 71.5227 76.8959 70.776 77.2799 69.816V67.448H72.5439C69.9412 67.448 68.6399 68.3227 68.6399 70.072C68.6399 70.9253 68.9705 71.5973 69.6319 72.088C70.2932 72.5787 71.2105 72.824 72.3839 72.824ZM90.9009 75.192C89.5142 75.192 88.1809 75.0107 86.9009 74.648C85.6209 74.264 84.6182 73.784 83.8929 73.208L85.1729 70.776C85.9195 71.3093 86.8262 71.736 87.8929 72.056C88.9595 72.376 90.0369 72.536 91.1249 72.536C93.8129 72.536 95.1569 71.768 95.1569 70.232C95.1569 69.72 94.9755 69.3147 94.6129 69.016C94.2502 68.7173 93.7915 68.504 93.2369 68.376C92.7035 68.2267 91.9355 68.0667 90.9329 67.896C89.5675 67.6827 88.4475 67.4373 87.5729 67.16C86.7195 66.8827 85.9835 66.4133 85.3649 65.752C84.7462 65.0907 84.4369 64.1627 84.4369 62.968C84.4369 61.432 85.0769 60.2053 86.3569 59.288C87.6369 58.3493 89.3542 57.88 91.5089 57.88C92.6395 57.88 93.7702 58.0187 94.9009 58.296C96.0315 58.5733 96.9595 58.9467 97.6849 59.416L96.3729 61.848C94.9862 60.952 93.3542 60.504 91.4769 60.504C90.1755 60.504 89.1835 60.7173 88.5009 61.144C87.8182 61.5707 87.4769 62.136 87.4769 62.84C87.4769 63.3947 87.6689 63.832 88.0529 64.152C88.4369 64.472 88.9062 64.7067 89.4609 64.856C90.0369 65.0053 90.8369 65.176 91.8609 65.368C93.2262 65.6027 94.3249 65.8587 95.1569 66.136C96.0102 66.392 96.7355 66.84 97.3329 67.48C97.9302 68.12 98.2289 69.016 98.2289 70.168C98.2289 71.704 97.5675 72.9307 96.2449 73.848C94.9435 74.744 93.1622 75.192 90.9009 75.192ZM102.068 58.04H105.14V75H102.068V58.04ZM103.604 54.776C103.007 54.776 102.505 54.584 102.1 54.2C101.716 53.816 101.524 53.3467 101.524 52.792C101.524 52.2373 101.716 51.768 102.1 51.384C102.505 50.9787 103.007 50.776 103.604 50.776C104.201 50.776 104.692 50.968 105.076 51.352C105.481 51.7147 105.684 52.1733 105.684 52.728C105.684 53.304 105.481 53.7947 105.076 54.2C104.692 54.584 104.201 54.776 103.604 54.776ZM117.182 57.88C119.528 57.88 121.32 58.456 122.558 59.608C123.816 60.76 124.446 62.4773 124.446 64.76V75H121.534V72.76C121.022 73.5493 120.286 74.1573 119.326 74.584C118.387 74.9893 117.267 75.192 115.966 75.192C114.067 75.192 112.542 74.7333 111.39 73.816C110.259 72.8987 109.694 71.6933 109.694 70.2C109.694 68.7067 110.238 67.512 111.326 66.616C112.414 65.6987 114.142 65.24 116.51 65.24H121.374V64.632C121.374 63.3093 120.99 62.296 120.222 61.592C119.454 60.888 118.323 60.536 116.83 60.536C115.827 60.536 114.846 60.7067 113.886 61.048C112.926 61.368 112.115 61.8053 111.454 62.36L110.174 60.056C111.048 59.352 112.094 58.8187 113.31 58.456C114.526 58.072 115.816 57.88 117.182 57.88ZM116.478 72.824C117.651 72.824 118.664 72.568 119.518 72.056C120.371 71.5227 120.99 70.776 121.374 69.816V67.448H116.638C114.035 67.448 112.734 68.3227 112.734 70.072C112.734 70.9253 113.064 71.5973 113.726 72.088C114.387 72.5787 115.304 72.824 116.478 72.824ZM147.908 52.6C150.81 52.6 153.092 53.2933 154.756 54.68C156.42 56.0667 157.252 57.976 157.252 60.408C157.252 62.84 156.42 64.7493 154.756 66.136C153.092 67.5227 150.81 68.216 147.908 68.216H142.372V75H139.172V52.6H147.908ZM147.812 65.432C149.839 65.432 151.386 65.0053 152.452 64.152C153.519 63.2773 154.052 62.0293 154.052 60.408C154.052 58.7867 153.519 57.5493 152.452 56.696C151.386 55.8213 149.839 55.384 147.812 55.384H142.372V65.432H147.812ZM161.818 51.256H164.89V75H161.818V51.256ZM176.932 57.88C179.278 57.88 181.07 58.456 182.308 59.608C183.566 60.76 184.196 62.4773 184.196 64.76V75H181.284V72.76C180.772 73.5493 180.036 74.1573 179.076 74.584C178.137 74.9893 177.017 75.192 175.716 75.192C173.817 75.192 172.292 74.7333 171.14 73.816C170.009 72.8987 169.444 71.6933 169.444 70.2C169.444 68.7067 169.988 67.512 171.076 66.616C172.164 65.6987 173.892 65.24 176.26 65.24H181.124V64.632C181.124 63.3093 180.74 62.296 179.972 61.592C179.204 60.888 178.073 60.536 176.58 60.536C175.577 60.536 174.596 60.7067 173.636 61.048C172.676 61.368 171.865 61.8053 171.204 62.36L169.924 60.056C170.798 59.352 171.844 58.8187 173.06 58.456C174.276 58.072 175.566 57.88 176.932 57.88ZM176.228 72.824C177.401 72.824 178.414 72.568 179.268 72.056C180.121 71.5227 180.74 70.776 181.124 69.816V67.448H176.388C173.785 67.448 172.484 68.3227 172.484 70.072C172.484 70.9253 172.814 71.5973 173.476 72.088C174.137 72.5787 175.054 72.824 176.228 72.824ZM198.937 57.88C201.091 57.88 202.798 58.5093 204.057 59.768C205.337 61.0053 205.977 62.8293 205.977 65.24V75H202.905V65.592C202.905 63.9493 202.51 62.712 201.721 61.88C200.931 61.048 199.801 60.632 198.329 60.632C196.665 60.632 195.353 61.1227 194.393 62.104C193.433 63.064 192.953 64.4507 192.953 66.264V75H189.881V58.04H192.825V60.6C193.443 59.7253 194.275 59.0533 195.321 58.584C196.387 58.1147 197.593 57.88 198.937 57.88ZM221.198 74.008C220.75 74.392 220.195 74.6907 219.534 74.904C218.873 75.096 218.19 75.192 217.486 75.192C215.779 75.192 214.457 74.7333 213.518 73.816C212.579 72.8987 212.11 71.5867 212.11 69.88V60.568H209.23V58.04H212.11V54.328H215.182V58.04H220.046V60.568H215.182V69.752C215.182 70.6693 215.406 71.3733 215.854 71.864C216.323 72.3547 216.985 72.6 217.838 72.6C218.777 72.6 219.577 72.3333 220.238 71.8L221.198 74.008Z" fill="white"/>
</svg>
